<svg width="24" height="24" viewBox="0 0 24 24" fill="none" xmlns="http://www.w3.org/2000/svg">
<path d="M10.8959 14.9822C10.7512 15.1472 10.6122 15.3055 10.4734 15.4641C8.87088 17.2957 7.26842 19.1273 5.66596 20.9589C5.40892 21.2527 5.15098 21.5457 4.89579 21.8411C4.85346 21.8901 4.81062 21.9132 4.74378 21.913C3.68916 21.911 2.63454 21.9116 1.57992 21.9114C1.55274 21.9114 1.52556 21.9086 1.47652 21.9058C4.09903 18.9072 6.7092 15.9229 9.32713 12.9295C6.56894 9.32149 3.81177 5.71485 1.04346 2.09364C1.09391 2.09128 1.12412 2.08869 1.1544 2.08869C3.39585 2.08847 5.6373 2.08884 7.87882 2.08691C7.9501 2.08691 7.99287 2.1102 8.03504 2.16608C9.58469 4.21861 11.1358 6.26997 12.6869 8.32139C12.7095 8.35125 12.7333 8.38016 12.7642 8.41911C12.7904 8.39087 12.8135 8.36722 12.8352 8.34238C13.5751 7.49633 14.3149 6.65012 15.0548 5.80407C16.118 4.58827 17.1815 3.37285 18.2435 2.15603C18.2871 2.10613 18.3322 2.08721 18.3973 2.08728C19.4456 2.08891 20.494 2.08839 21.5423 2.08839C21.5732 2.08839 21.6041 2.08839 21.6322 2.08839C21.6356 2.10081 21.6369 2.10377 21.6372 2.10687C21.6374 2.10975 21.637 2.11286 21.6361 2.11559C21.6352 2.11855 21.6339 2.12166 21.6318 2.12395C19.1968 4.90863 16.7618 7.69324 14.3206 10.4848C17.1963 14.288 20.0712 18.09 22.9565 21.9059C22.9064 21.9084 22.8762 21.9113 22.8459 21.9113C20.6611 21.9115 18.4763 21.9113 16.2915 21.9127C16.2256 21.9127 16.1825 21.8942 16.1416 21.8406C14.9901 20.3316 13.837 18.824 12.6841 17.3162C12.1047 16.5585 11.5251 15.8009 10.9455 15.0434C10.9323 15.026 10.9181 15.0094 10.8961 14.982L10.8959 14.9822ZM18.985 19.8982C18.947 19.8464 18.9234 19.8135 18.8991 19.7812C17.9632 18.5433 17.0273 17.3054 16.0913 16.0675C14.394 13.8228 12.6966 11.578 10.9993 9.33332C9.67222 7.57823 8.34497 5.82321 7.01935 4.06701C6.97917 4.01379 6.93847 3.9911 6.87133 3.99139C6.27319 3.99376 5.67504 3.99272 5.0769 3.99294C5.04647 3.99294 5.01611 3.9959 4.96832 3.99834C4.99654 4.037 5.01552 4.06413 5.03561 4.09037C5.51934 4.72303 6.00337 5.35554 6.48702 5.98819C8.17332 8.19381 9.85946 10.3996 11.5458 12.6052C13.3869 15.0133 15.2286 17.4212 17.0687 19.8302C17.1071 19.8806 17.1467 19.8998 17.2097 19.8995C17.767 19.8972 18.3242 19.8982 18.8813 19.8982C18.9087 19.8982 18.9361 19.8982 18.9849 19.8982L18.985 19.8982Z" fill="black"/>
</svg>
